<svg width="8.000000" height="9.000000" viewBox="0 0 8 9" fill="none" xmlns="http://www.w3.org/2000/svg" xmlns:xlink="http://www.w3.org/1999/xlink">
	<desc>
			Created with Pixso.
	</desc>
	<defs/>
	<path id="Vector" d="M5.2 1.08L6.82 1.08C6.89 1.08 6.95 1.1 7 1.15C7.05 1.2 7.07 1.26 7.07 1.33L7.07 7.5C7.07 7.56 7.05 7.63 7 7.67C6.95 7.72 6.89 7.75 6.82 7.75L-0.18 7.75C-0.24 7.75 -0.31 7.72 -0.35 7.67C-0.4 7.63 -0.43 7.56 -0.43 7.5L-0.43 1.33C-0.43 1.26 -0.4 1.2 -0.35 1.15C-0.31 1.1 -0.24 1.08 -0.18 1.08L1.45 1.08M5.19 1.12C5.2 1.09 5.2 1.06 5.19 1.04L5.11 0.52C5.07 0.33 4.97 0.15 4.82 0.03C4.67 -0.1 4.48 -0.17 4.29 -0.17L2.36 -0.17C2.17 -0.17 1.98 -0.1 1.83 0.03C1.67 0.15 1.57 0.33 1.54 0.52L1.46 1.04C1.45 1.06 1.45 1.09 1.46 1.12L1.54 1.63C1.57 1.83 1.67 2 1.83 2.13C1.98 2.26 2.17 2.33 2.36 2.33L4.29 2.33C4.48 2.33 4.67 2.26 4.82 2.13C4.97 2 5.08 1.83 5.11 1.63L5.19 1.12ZM3.32 2.33L2.91 1.29M1.24 6.08L5.41 6.08" stroke="#FFFFFF" stroke-opacity="1.000000" stroke-width="0.585216" stroke-linejoin="round"/>
</svg>
