<svg width="136.000000" height="16.000000" viewBox="0 0 136 16" fill="none" xmlns="http://www.w3.org/2000/svg" xmlns:xlink="http://www.w3.org/1999/xlink">
	<desc>
			Created with Pixso.
	</desc>
	<defs/>
	<path id="DSGNERS!" d="M33.41 4.2C33.13 4.06 32.75 3.9 32.29 3.73C31.82 3.55 31.29 3.39 30.7 3.23C30.11 3.07 29.47 2.94 28.77 2.84Q27.74 2.68 26.64 2.68C26.06 2.68 25.56 2.69 25.14 2.73C24.73 2.77 24.39 2.82 24.1 2.87C23.83 2.93 23.6 3 23.44 3.08C23.28 3.15 23.15 3.23 23.06 3.31C22.98 3.39 22.92 3.47 22.89 3.55C22.87 3.63 22.86 3.7 22.86 3.77C22.86 3.99 22.97 4.18 23.18 4.35C23.4 4.51 23.7 4.66 24.08 4.79C24.46 4.91 24.9 5.03 25.41 5.15C25.91 5.26 26.44 5.38 27 5.5C27.57 5.62 28.15 5.75 28.75 5.89C29.36 6.03 29.94 6.2 30.5 6.39C31.07 6.57 31.61 6.8 32.11 7.05C32.61 7.3 33.06 7.59 33.44 7.93C33.81 8.26 34.11 8.65 34.33 9.09C34.55 9.53 34.66 10.02 34.66 10.59C34.66 11.31 34.53 11.93 34.28 12.45C34.02 12.96 33.68 13.4 33.25 13.76C32.83 14.12 32.33 14.4 31.77 14.62C31.21 14.83 30.62 15 30 15.12C29.39 15.23 28.76 15.31 28.13 15.35C27.5 15.38 26.9 15.4 26.34 15.4C24.85 15.4 23.47 15.28 22.2 15.03C20.94 14.79 19.82 14.48 18.85 14.12L18.85 10.53C19.85 11.09 20.99 11.52 22.27 11.83Q24.19 12.3 26.38 12.3C27.24 12.3 27.94 12.26 28.48 12.17C29.03 12.08 29.45 11.96 29.76 11.82C30.07 11.68 30.27 11.52 30.38 11.35Q30.55 11.1 30.55 10.87C30.55 10.63 30.44 10.42 30.22 10.25C30 10.06 29.7 9.91 29.32 9.78Q28.75 9.57 28 9.4C27.5 9.29 26.96 9.17 26.39 9.07C25.83 8.95 25.25 8.82 24.65 8.69C24.05 8.56 23.47 8.41 22.9 8.23C22.34 8.05 21.81 7.84 21.3 7.61C20.8 7.37 20.36 7.09 19.98 6.77C19.6 6.44 19.3 6.06 19.08 5.64C18.86 5.21 18.75 4.71 18.75 4.15Q18.75 3.16 19.1 2.44C19.34 1.95 19.65 1.55 20.04 1.21C20.45 0.87 20.91 0.59 21.42 0.38C21.95 0.17 22.5 0 23.08 -0.11C23.65 -0.23 24.23 -0.31 24.83 -0.35Q25.71 -0.42 26.51 -0.42C27.09 -0.42 27.69 -0.39 28.3 -0.33C28.92 -0.27 29.53 -0.19 30.13 -0.08C30.73 0.02 31.31 0.14 31.86 0.28C32.42 0.42 32.94 0.57 33.41 0.72L33.41 4.2ZM46.29 -0.42C47.76 -0.42 49.13 -0.29 50.39 -0.04C51.66 0.21 52.82 0.53 53.88 0.93L53.88 4.6C53.47 4.37 53 4.14 52.47 3.92Q51.69 3.6 50.77 3.34C50.16 3.18 49.51 3.04 48.81 2.94C48.11 2.84 47.37 2.79 46.6 2.79C45.63 2.79 44.79 2.86 44.08 2.99C43.36 3.13 42.75 3.32 42.24 3.55C41.73 3.79 41.31 4.06 40.98 4.37Q40.49 4.83 40.21 5.36C40.02 5.71 39.89 6.06 39.81 6.43C39.74 6.79 39.7 7.15 39.7 7.49C39.7 7.79 39.73 8.11 39.79 8.46C39.86 8.81 39.97 9.16 40.14 9.51C40.32 9.86 40.56 10.2 40.86 10.52C41.17 10.84 41.57 11.13 42.06 11.37C42.55 11.62 43.15 11.82 43.84 11.98C44.53 12.12 45.36 12.19 46.31 12.19C46.79 12.19 47.21 12.18 47.57 12.15Q48.11 12.11 48.54 12.03C48.84 11.98 49.12 11.92 49.37 11.84C49.64 11.77 49.91 11.69 50.18 11.61L50.18 9.8L45.63 9.8L45.63 6.51L54.24 6.51L54.24 14.19C53.7 14.37 53.1 14.54 52.43 14.69C51.76 14.83 51.07 14.96 50.36 15.06C49.65 15.17 48.94 15.25 48.23 15.31C47.51 15.37 46.84 15.4 46.2 15.4C45.22 15.4 44.27 15.33 43.37 15.2C42.46 15.07 41.62 14.87 40.83 14.6C40.05 14.32 39.33 13.97 38.69 13.55C38.04 13.13 37.49 12.62 37.03 12.04C36.58 11.46 36.23 10.79 35.97 10.04C35.72 9.28 35.6 8.43 35.6 7.49C35.6 6.56 35.73 5.71 35.99 4.95C36.26 4.19 36.62 3.52 37.09 2.94C37.56 2.36 38.13 1.85 38.78 1.43Q39.78 0.79 40.96 0.39C41.76 0.11 42.6 -0.09 43.5 -0.22C44.4 -0.35 45.33 -0.42 46.29 -0.42ZM128.15 4.2C127.87 4.06 127.49 3.9 127.02 3.73C126.56 3.55 126.03 3.39 125.44 3.23Q124.55 2.99 123.51 2.84C122.82 2.73 122.11 2.68 121.38 2.68C120.79 2.68 120.3 2.69 119.88 2.73C119.47 2.77 119.12 2.82 118.84 2.87C118.56 2.93 118.34 3 118.17 3.08C118.01 3.15 117.89 3.23 117.8 3.31C117.71 3.39 117.66 3.47 117.63 3.55C117.6 3.63 117.59 3.7 117.59 3.77C117.59 3.99 117.7 4.18 117.92 4.35C118.14 4.51 118.44 4.66 118.82 4.79C119.2 4.91 119.64 5.03 120.14 5.15C120.65 5.26 121.18 5.38 121.74 5.5C122.31 5.62 122.89 5.75 123.49 5.89C124.1 6.03 124.68 6.2 125.24 6.39C125.81 6.57 126.35 6.8 126.85 7.05C127.35 7.3 127.79 7.59 128.17 7.93C128.55 8.26 128.85 8.65 129.07 9.09C129.29 9.53 129.4 10.02 129.4 10.59C129.4 11.31 129.27 11.93 129.01 12.45C128.76 12.96 128.42 13.4 127.99 13.76C127.56 14.12 127.07 14.4 126.51 14.62C125.95 14.83 125.36 15 124.74 15.12Q123.82 15.29 122.87 15.35C122.24 15.38 121.64 15.4 121.07 15.4C119.58 15.4 118.21 15.28 116.94 15.03C115.67 14.79 114.56 14.48 113.59 14.12L113.59 10.53C114.59 11.09 115.73 11.52 117 11.83C118.29 12.15 119.66 12.3 121.12 12.3C121.98 12.3 122.68 12.26 123.22 12.17C123.76 12.08 124.19 11.96 124.5 11.82C124.8 11.68 125.01 11.52 125.12 11.35C125.23 11.18 125.28 11.02 125.28 10.87C125.28 10.63 125.17 10.42 124.96 10.25C124.74 10.06 124.44 9.91 124.06 9.78C123.68 9.64 123.24 9.51 122.74 9.4C122.23 9.29 121.7 9.17 121.13 9.07C120.57 8.95 119.99 8.82 119.39 8.69C118.79 8.56 118.21 8.41 117.64 8.23C117.08 8.05 116.54 7.84 116.04 7.61Q115.28 7.25 114.72 6.77C114.34 6.44 114.04 6.06 113.82 5.64C113.6 5.21 113.49 4.71 113.49 4.15C113.49 3.49 113.61 2.92 113.84 2.44C114.07 1.95 114.39 1.55 114.78 1.21C115.18 0.87 115.64 0.59 116.16 0.38C116.69 0.17 117.24 0 117.81 -0.11C118.39 -0.23 118.97 -0.31 119.56 -0.35Q120.45 -0.42 121.25 -0.42C121.83 -0.42 122.43 -0.39 123.04 -0.33C123.66 -0.27 124.27 -0.19 124.87 -0.08C125.47 0.02 126.04 0.14 126.6 0.28C127.16 0.42 127.68 0.57 128.15 0.72L128.15 4.2ZM17.76 7.47C17.76 8.43 17.65 9.29 17.44 10.04C17.23 10.78 16.93 11.43 16.54 11.99C16.17 12.54 15.71 13.01 15.17 13.4C14.63 13.78 14.04 14.09 13.38 14.33C12.73 14.56 12.02 14.73 11.26 14.84Q10.12 15 8.89 15L-0.65 15L-0.65 -0.04L8.86 -0.04Q10.1 -0.04 11.24 0.13C12 0.23 12.7 0.4 13.36 0.63C14.03 0.86 14.63 1.17 15.17 1.56C15.71 1.94 16.17 2.41 16.54 2.97C16.93 3.53 17.23 4.18 17.44 4.92Q17.76 6.04 17.76 7.47ZM70.91 15L60.77 4.67L60.77 15L56.71 15L56.71 -0.04L61.12 -0.04L71.28 10.33L71.28 -0.04L75.31 -0.04L75.31 15L70.91 15ZM78.11 15L78.11 -0.04L93.33 -0.04L93.33 3.17L82.28 3.17L82.28 5.65L92.76 5.65L92.76 8.86L82.28 8.86L82.28 11.79L93.48 11.79L93.48 15L78.11 15ZM99.56 15L95.51 15L95.51 -0.04L105.68 -0.04Q107.32 -0.04 108.46 0.3C109.22 0.53 109.84 0.85 110.32 1.27C110.8 1.68 111.15 2.18 111.36 2.78C111.58 3.36 111.69 4.01 111.69 4.73C111.69 5.37 111.6 5.92 111.41 6.4C111.24 6.87 111 7.28 110.69 7.62C110.39 7.96 110.04 8.24 109.64 8.47C109.24 8.71 108.82 8.9 108.37 9.05L113.29 15L108.55 15L104 9.46L99.56 9.46L99.56 15ZM134.55 9.84L131.84 9.84L131 3.23L131 -0.04L135.38 -0.04L135.38 3.23L134.55 9.84ZM107.58 4.71Q107.58 4.27 107.46 3.97Q107.42 3.85 107.35 3.75Q107.24 3.59 107.07 3.47C106.88 3.34 106.62 3.25 106.3 3.19C105.99 3.13 105.6 3.1 105.12 3.1L99.56 3.1L99.56 6.32L105.12 6.32C105.6 6.32 105.99 6.29 106.3 6.23C106.62 6.17 106.88 6.08 107.07 5.96Q107.26 5.83 107.37 5.65Q107.43 5.56 107.46 5.46C107.54 5.25 107.58 5 107.58 4.71ZM13.67 7.47C13.67 6.75 13.57 6.12 13.38 5.59C13.2 5.05 12.9 4.62 12.49 4.27Q11.87 3.75 10.88 3.5Q9.88 3.23 8.45 3.23L3.41 3.23L3.41 11.72L8.45 11.72C9.4 11.72 10.21 11.64 10.88 11.47Q11.87 11.21 12.49 10.68C12.9 10.33 13.2 9.88 13.38 9.35Q13.67 8.55 13.67 7.47ZM131.23 15L131.23 11.51L135.15 11.51L135.15 15L131.23 15Z" fill="#000000" fill-opacity="1.000000" fill-rule="evenodd"/>
</svg>
