<svg width="8.000000" height="9.000000" viewBox="0 0 8 9" fill="none" xmlns="http://www.w3.org/2000/svg" xmlns:xlink="http://www.w3.org/1999/xlink">
	<desc>
			Created with Pixso.
	</desc>
	<defs/>
	<path id="Vector" d="M3.82 6.08C3.82 4.83 2.99 4 1.74 4M5.91 6.08C5.91 3.58 4.24 1.91 1.74 1.91M1.74 6.08L1.75 6.08M7.57 5.66C7.57 6.21 7.36 6.74 6.96 7.13C6.57 7.53 6.04 7.75 5.49 7.75L2.16 7.75C1.61 7.75 1.08 7.53 0.68 7.13C0.29 6.74 0.07 6.21 0.07 5.66L0.07 2.33C0.07 1.78 0.29 1.25 0.68 0.86C1.08 0.46 1.61 0.25 2.16 0.25L5.49 0.25C6.04 0.25 6.57 0.46 6.96 0.86C7.36 1.25 7.57 1.78 7.57 2.33L7.57 5.66Z" stroke="#FFFFFF" stroke-opacity="1.000000" stroke-width="0.585216" stroke-linejoin="round"/>
</svg>
