<svg width="24.000000" height="24.000000" viewBox="0 0 24 24" fill="none" xmlns="http://www.w3.org/2000/svg" xmlns:xlink="http://www.w3.org/1999/xlink">
	<desc>
			Created with Pixso.
	</desc>
	<defs>
		<clipPath id="clip5_11854">
			<rect id="Frame" width="24.000000" height="24.000000" fill="white" fill-opacity="0"/>
		</clipPath>
	</defs>
	<rect id="Frame" width="24.000000" height="24.000000" fill="#FFFFFF" fill-opacity="0"/>
	<g clip-path="url(#clip5_11854)">
		<path id="Vector" d="M12 0C6.99 0 5.52 0 5.24 0.02C4.21 0.11 3.57 0.27 2.87 0.62C2.34 0.89 1.91 1.19 1.5 1.63C0.73 2.42 0.27 3.39 0.11 4.55C0.02 5.11 0 5.22 0 8.09C-0.01 9.05 0 10.3 0 11.99C0 17 0 18.46 0.03 18.75C0.11 19.75 0.27 20.38 0.6 21.06C1.23 22.38 2.45 23.37 3.87 23.74C4.37 23.87 4.91 23.94 5.62 23.97C5.91 23.99 8.94 24 11.97 24C15 24 18.03 23.99 18.32 23.98C19.14 23.94 19.61 23.88 20.13 23.74C21.57 23.37 22.76 22.39 23.41 21.06C23.73 20.39 23.9 19.73 23.97 18.78C23.99 18.58 24 15.28 24 11.99C24 8.69 23.99 5.4 23.97 5.2C23.9 4.23 23.73 3.58 23.39 2.9C23.12 2.34 22.81 1.92 22.37 1.49C21.57 0.73 20.6 0.27 19.45 0.11C18.88 0.02 18.77 0 15.9 0L12 0Z" fill="#26A4E3" fill-opacity="1.000000" fill-rule="nonzero"/>
		<path id="Vector" d="M5.42 11.87C8.92 10.35 11.25 9.34 12.42 8.85C15.75 7.46 16.45 7.22 16.9 7.21C17 7.21 17.22 7.23 17.37 7.35C17.49 7.45 17.52 7.58 17.54 7.68C17.56 7.78 17.58 7.99 17.56 8.15C17.38 10.05 16.6 14.66 16.2 16.78C16.03 17.68 15.7 17.98 15.38 18.01C14.68 18.07 14.15 17.55 13.48 17.11C12.42 16.42 11.83 15.99 10.8 15.31C9.61 14.53 10.38 14.1 11.06 13.4C11.24 13.22 14.31 10.42 14.37 10.17C14.38 10.14 14.38 10.02 14.31 9.96C14.24 9.9 14.14 9.92 14.06 9.94C13.95 9.96 12.27 11.08 9 13.29C8.52 13.62 8.09 13.78 7.7 13.77C7.27 13.76 6.45 13.53 5.83 13.33C5.08 13.09 4.48 12.96 4.53 12.54C4.56 12.32 4.86 12.1 5.42 11.87Z" fill="#FFFFFF" fill-opacity="1.000000" fill-rule="evenodd"/>
	</g>
</svg>
