<svg width="6.000000" height="7.000000" viewBox="0 0 6 7" fill="none" xmlns="http://www.w3.org/2000/svg" xmlns:xlink="http://www.w3.org/1999/xlink">
	<desc>
			Created with Pixso.
	</desc>
	<defs/>
	<path id="Vector" d="M0.08 -0.15C0.03 -0.15 -0.01 -0.14 -0.05 -0.12C-0.09 -0.09 -0.12 -0.06 -0.14 -0.03C-0.16 0.01 -0.18 0.06 -0.18 0.1L-0.18 5.89C-0.18 5.93 -0.16 5.98 -0.14 6.02C-0.12 6.05 -0.09 6.08 -0.05 6.11C-0.01 6.13 0.03 6.14 0.08 6.14C0.12 6.14 0.16 6.13 0.2 6.1L5.09 3.21C5.12 3.19 5.15 3.16 5.18 3.12C5.2 3.08 5.21 3.04 5.21 3C5.21 2.95 5.2 2.91 5.18 2.87C5.15 2.83 5.12 2.8 5.09 2.78L0.2 -0.11C0.16 -0.14 0.12 -0.15 0.08 -0.15Z" stroke="#FFFFFF" stroke-opacity="1.000000" stroke-width="0.585216" stroke-linejoin="round"/>
</svg>
