<svg width="24.000000" height="24.000000" viewBox="0 0 24 24" fill="none" xmlns="http://www.w3.org/2000/svg" xmlns:xlink="http://www.w3.org/1999/xlink">
	<desc>
			Created with Pixso.
	</desc>
	<defs>
		<clipPath id="clip5_11861">
			<rect id="Frame" width="24.000000" height="24.000000" fill="white" fill-opacity="0"/>
		</clipPath>
		<radialGradient id="paint_radial_5_11855_0" cx="0.000000" cy="0.000000" r="1.000000" gradientUnits="userSpaceOnUse" gradientTransform="translate(23.225 11.2491) rotate(164.25) scale(15.3346 11.0479)">
			<stop stop-color="#FF005F"/>
			<stop offset="1.000000" stop-color="#FC01D8"/>
		</radialGradient>
		<radialGradient id="paint_radial_5_11856_0" cx="0.000000" cy="0.000000" r="1.000000" gradientUnits="userSpaceOnUse" gradientTransform="translate(6.37482 25.8485) rotate(-90) scale(19.1572 20.3254)">
			<stop stop-color="#FFCC00"/>
			<stop offset="0.124200" stop-color="#FFCC00"/>
			<stop offset="0.567200" stop-color="#FE4A05"/>
			<stop offset="0.694200" stop-color="#FF0F3F"/>
			<stop offset="1.000000" stop-color="#FE0657" stop-opacity="0.000000"/>
		</radialGradient>
		<radialGradient id="paint_radial_5_11857_0" cx="0.000000" cy="0.000000" r="1.000000" gradientUnits="userSpaceOnUse" gradientTransform="translate(12.6065 23.6615) rotate(-59.8703) scale(7.92169 10.3132)">
			<stop stop-color="#FFCC00"/>
			<stop offset="1.000000" stop-color="#FFCC00" stop-opacity="0.000000"/>
		</radialGradient>
		<radialGradient id="paint_radial_5_11858_0" cx="0.000000" cy="0.000000" r="1.000000" gradientUnits="userSpaceOnUse" gradientTransform="translate(3.25628 0.977274) rotate(164.274) scale(15.1645 5.16655)">
			<stop stop-color="#780CFF"/>
			<stop offset="1.000000" stop-color="#820BFF" stop-opacity="0.000000"/>
		</radialGradient>
	</defs>
	<rect id="Frame" width="24.000000" height="24.000000" fill="#FFFFFF" fill-opacity="0"/>
	<g clip-path="url(#clip5_11861)">
		<path id="Vector" d="M12 0C6.99 0 5.52 0 5.24 0.02C4.21 0.11 3.57 0.27 2.87 0.62C2.34 0.89 1.91 1.19 1.5 1.63C0.73 2.42 0.27 3.39 0.11 4.55C0.02 5.11 0 5.22 0 8.09C-0.01 9.05 0 10.3 0 11.99C0 17 0 18.46 0.03 18.75C0.11 19.75 0.27 20.38 0.6 21.06C1.23 22.38 2.45 23.37 3.87 23.74C4.37 23.87 4.91 23.94 5.62 23.97C5.91 23.99 8.94 24 11.97 24C15 24 18.03 23.99 18.32 23.98C19.14 23.94 19.61 23.88 20.13 23.74C21.57 23.37 22.76 22.39 23.41 21.06C23.73 20.39 23.9 19.73 23.97 18.78C23.99 18.58 24 15.28 24 11.99C24 8.69 23.99 5.4 23.97 5.2C23.9 4.23 23.73 3.58 23.39 2.9C23.12 2.34 22.81 1.92 22.37 1.49C21.57 0.73 20.6 0.27 19.45 0.11C18.88 0.02 18.77 0 15.9 0L12 0Z" fill="url(#paint_radial_5_11855_0)" fill-opacity="1.000000" fill-rule="nonzero"/>
		<path id="Vector" d="M12 0C6.99 0 5.52 0 5.24 0.02C4.21 0.11 3.57 0.27 2.87 0.62C2.34 0.89 1.91 1.19 1.5 1.63C0.73 2.42 0.27 3.39 0.11 4.55C0.02 5.11 0 5.22 0 8.09C-0.01 9.05 0 10.3 0 11.99C0 17 0 18.46 0.03 18.75C0.11 19.75 0.27 20.38 0.6 21.06C1.23 22.38 2.45 23.37 3.87 23.74C4.37 23.87 4.91 23.94 5.62 23.97C5.91 23.99 8.94 24 11.97 24C15 24 18.03 23.99 18.32 23.98C19.14 23.94 19.61 23.88 20.13 23.74C21.57 23.37 22.76 22.39 23.41 21.06C23.73 20.39 23.9 19.73 23.97 18.78C23.99 18.58 24 15.28 24 11.99C24 8.69 23.99 5.4 23.97 5.2C23.9 4.23 23.73 3.58 23.39 2.9C23.12 2.34 22.81 1.92 22.37 1.49C21.57 0.73 20.6 0.27 19.45 0.11C18.88 0.02 18.77 0 15.9 0L12 0Z" fill="url(#paint_radial_5_11856_0)" fill-opacity="1.000000" fill-rule="nonzero"/>
		<path id="Vector" d="M12 0C6.99 0 5.52 0 5.24 0.02C4.21 0.11 3.57 0.27 2.87 0.62C2.34 0.89 1.91 1.19 1.5 1.63C0.73 2.42 0.27 3.39 0.11 4.55C0.02 5.11 0 5.22 0 8.09C-0.01 9.05 0 10.3 0 11.99C0 17 0 18.46 0.03 18.75C0.11 19.75 0.27 20.38 0.6 21.06C1.23 22.38 2.45 23.37 3.87 23.74C4.37 23.87 4.91 23.94 5.62 23.97C5.91 23.99 8.94 24 11.97 24C15 24 18.03 23.99 18.32 23.98C19.14 23.94 19.61 23.88 20.13 23.74C21.57 23.37 22.76 22.39 23.41 21.06C23.73 20.39 23.9 19.73 23.97 18.78C23.99 18.58 24 15.28 24 11.99C24 8.69 23.99 5.4 23.97 5.2C23.9 4.23 23.73 3.58 23.39 2.9C23.12 2.34 22.81 1.92 22.37 1.49C21.57 0.73 20.6 0.27 19.45 0.11C18.88 0.02 18.77 0 15.9 0L12 0Z" fill="url(#paint_radial_5_11857_0)" fill-opacity="1.000000" fill-rule="nonzero"/>
		<path id="Vector" d="M12 0C6.99 0 5.52 0 5.24 0.02C4.21 0.11 3.57 0.27 2.87 0.62C2.34 0.89 1.91 1.19 1.5 1.63C0.73 2.42 0.27 3.39 0.11 4.55C0.02 5.11 0 5.22 0 8.09C-0.01 9.05 0 10.3 0 11.99C0 17 0 18.46 0.03 18.75C0.11 19.75 0.27 20.38 0.6 21.06C1.23 22.38 2.45 23.37 3.87 23.74C4.37 23.87 4.91 23.94 5.62 23.97C5.91 23.99 8.94 24 11.97 24C15 24 18.03 23.99 18.32 23.98C19.14 23.94 19.61 23.88 20.13 23.74C21.57 23.37 22.76 22.39 23.41 21.06C23.73 20.39 23.9 19.73 23.97 18.78C23.99 18.58 24 15.28 24 11.99C24 8.69 23.99 5.4 23.97 5.2C23.9 4.23 23.73 3.58 23.39 2.9C23.12 2.34 22.81 1.92 22.37 1.49C21.57 0.73 20.6 0.27 19.45 0.11C18.88 0.02 18.77 0 15.9 0L12 0Z" fill="url(#paint_radial_5_11858_0)" fill-opacity="1.000000" fill-rule="nonzero"/>
		<path id="Vector" d="M12 3.08C9.58 3.08 9.27 3.09 8.32 3.13C7.37 3.17 6.72 3.32 6.15 3.54C5.57 3.77 5.07 4.08 4.57 4.57C4.08 5.07 3.77 5.57 3.54 6.15C3.32 6.72 3.17 7.37 3.13 8.32C3.09 9.27 3.08 9.57 3.08 11.99C3.08 14.42 3.09 14.72 3.13 15.67C3.17 16.62 3.32 17.27 3.54 17.83C3.77 18.42 4.08 18.92 4.57 19.41C5.07 19.91 5.57 20.21 6.15 20.44C6.72 20.66 7.37 20.81 8.32 20.86C9.27 20.9 9.58 20.91 12 20.91C14.42 20.91 14.73 20.9 15.68 20.86C16.63 20.81 17.28 20.66 17.84 20.44C18.43 20.21 18.93 19.91 19.42 19.41C19.92 18.92 20.23 18.42 20.45 17.83C20.67 17.27 20.82 16.62 20.87 15.67C20.91 14.72 20.92 14.41 20.92 11.99C20.92 9.57 20.91 9.27 20.87 8.32C20.82 7.37 20.67 6.72 20.45 6.15C20.23 5.57 19.92 5.07 19.42 4.57C18.93 4.08 18.43 3.77 17.84 3.54C17.27 3.32 16.63 3.17 15.68 3.13C14.72 3.09 14.42 3.08 12 3.08L12 3.08ZM11.2 4.68C11.44 4.68 11.7 4.68 12 4.68C14.38 4.68 14.66 4.69 15.61 4.73C16.48 4.77 16.95 4.92 17.26 5.04C17.68 5.2 17.98 5.4 18.29 5.71C18.6 6.02 18.79 6.32 18.96 6.73C19.08 7.05 19.22 7.52 19.26 8.39C19.31 9.33 19.31 9.61 19.31 11.99C19.31 14.37 19.31 14.65 19.26 15.59C19.22 16.46 19.08 16.93 18.96 17.25C18.79 17.66 18.6 17.96 18.29 18.27C17.98 18.58 17.68 18.78 17.26 18.94C16.95 19.06 16.48 19.21 15.61 19.25C14.66 19.29 14.38 19.3 12 19.3C9.62 19.3 9.33 19.29 8.39 19.25C7.52 19.21 7.05 19.06 6.74 18.94C6.32 18.78 6.02 18.58 5.71 18.27C5.4 17.96 5.21 17.66 5.04 17.25C4.92 16.93 4.78 16.46 4.74 15.59C4.69 14.65 4.68 14.37 4.68 11.99C4.68 9.61 4.69 9.33 4.74 8.39C4.78 7.52 4.92 7.05 5.04 6.73C5.2 6.32 5.4 6.02 5.71 5.71C6.02 5.39 6.32 5.2 6.74 5.04C7.05 4.92 7.52 4.77 8.39 4.73C9.22 4.69 9.54 4.68 11.2 4.68L11.2 4.68ZM16.76 6.16C16.17 6.16 15.69 6.64 15.69 7.23C15.69 7.82 16.17 8.3 16.76 8.3C17.35 8.3 17.83 7.82 17.83 7.23C17.83 6.64 17.35 6.16 16.76 6.16L16.76 6.16ZM12 7.41C9.47 7.41 7.42 9.46 7.42 11.99C7.42 14.52 9.47 16.57 12 16.57C14.53 16.57 16.58 14.52 16.58 11.99C16.58 9.46 14.53 7.41 12 7.41L12 7.41ZM12 9.02C13.64 9.02 14.97 10.35 14.97 11.99C14.97 13.63 13.64 14.97 12 14.97C10.36 14.97 9.03 13.63 9.03 11.99C9.03 10.35 10.36 9.02 12 9.02Z" fill="#FFFFFF" fill-opacity="1.000000" fill-rule="nonzero"/>
	</g>
</svg>
