<svg width="24.000000" height="24.000000" viewBox="0 0 24 24" fill="none" xmlns="http://www.w3.org/2000/svg" xmlns:xlink="http://www.w3.org/1999/xlink">
	<desc>
			Created with Pixso.
	</desc>
	<defs>
		<clipPath id="clip5_11851">
			<rect id="Frame" width="24.000000" height="24.000000" fill="white" fill-opacity="0"/>
		</clipPath>
	</defs>
	<rect id="Frame" width="24.000000" height="24.000000" fill="#FFFFFF" fill-opacity="0"/>
	<g clip-path="url(#clip5_11851)">
		<path id="Vector" d="M12 0C6.99 0 5.52 0 5.24 0.02C4.21 0.11 3.57 0.27 2.87 0.62C2.34 0.89 1.91 1.19 1.5 1.63C0.73 2.42 0.27 3.39 0.11 4.55C0.02 5.11 0 5.22 0 8.09C-0.01 9.05 0 10.3 0 11.99C0 17 0 18.46 0.03 18.75C0.11 19.75 0.27 20.38 0.6 21.06C1.23 22.38 2.45 23.37 3.87 23.74C4.37 23.87 4.91 23.94 5.62 23.97C5.91 23.99 8.94 24 11.97 24C15 24 18.03 23.99 18.32 23.98C19.14 23.94 19.61 23.88 20.13 23.74C21.57 23.37 22.76 22.39 23.41 21.06C23.73 20.39 23.9 19.73 23.97 18.78C23.99 18.58 24 15.28 24 11.99C24 8.69 23.99 5.4 23.97 5.2C23.9 4.23 23.73 3.58 23.39 2.9C23.12 2.34 22.81 1.92 22.37 1.49C21.57 0.73 20.6 0.27 19.45 0.11C18.88 0.02 18.77 0 15.9 0L12 0Z" fill="#0077FF" fill-opacity="1.000000" fill-rule="nonzero"/>
		<path id="Vector" d="M12.77 17.29C7.3 17.29 4.17 13.54 4.05 7.3L6.79 7.3C6.88 11.88 8.89 13.82 10.5 14.22L10.5 7.3L13.08 7.3L13.08 11.25C14.66 11.08 16.31 9.28 16.87 7.3L19.45 7.3C19.03 9.74 17.23 11.54 15.95 12.28C17.23 12.88 19.28 14.45 20.06 17.29L17.21 17.29C16.6 15.39 15.09 13.92 13.08 13.72L13.08 17.29L12.77 17.29Z" fill="#FFFFFF" fill-opacity="1.000000" fill-rule="nonzero"/>
	</g>
</svg>
